# xmcd
#
# Track frame offsets: 
#        150
#        7722
#        8066
#        26538
#        37308
#        43663
#        48777
#        52407
#        53733
#        54106
#        165818
#        167326
#        172259
#        182126
#        205464
#        207349
#        235206
#        236682
#        237696
#        238053
#        242251
#        243695
#        244101
#        289034
#        290815
#        292997
#        295672
#        308859
#
# Disc length: 4331 seconds
#
# Revision: 2
# Processed by: cddbd v1.5.2PL0 Copyright (c) Steve Scherf et al.
# Submitted via: ExactAudioCopy v1.0b3
#
DISCID=9110e91c
DTITLE=Elizabeth Clare Prophet - Blue Lightning Is Thy Love!
DYEAR=1996
DGENRE=New Age
TTITLE0=Blue Cross-Blue Flame Protection-preamble (10.10)
TTITLE1=Silence for calls
TTITLE2=Blue Cross-Blue Flame Protection (10.10, 9x)
TTITLE3=I AM Presence, Thou Art Master (10.11) (beginning)
TTITLE4=I AM Presence, Thou Art Master (10.11) (end)
TTITLE5=Guard, Guard, Guard Us! (1.32)
TTITLE6=Invincible Protection of the Light I AM! (1.33)
TTITLE7=Decree to Archangel Michael-preamble (10.00)
TTITLE8=Silence for calls
TTITLE9=Decree to Archangel Michael (10.00, 36x)
TTITLE10=And in full Faith...
TTITLE11=Traveling Protection (6.05, 3x)
TTITLE12=Blue Lightning Is Thy Love! (10.16, 6x)
TTITLE13=Light's Protection (10.01, 6x)-fiat
TTITLE14=Michael, Archangel of Faith - preamble (10.15)
TTITLE15=Michael, Archangel of Faith (10.15, 12x)
TTITLE16=And in full Faith...
TTITLE17=Archangel Michael, Help Me! (10.22) (beginning)
TTITLE18=Silence for calls
TTITLE19=Archangel Michael, Help Me! (10.22) (end)
TTITLE20=Beloved Archangel Michael-preamble (10.06)
TTITLE21=Silence for calls
TTITLE22=Beloved Archangel Michael (10.06, 13x)
TTITLE23=And in full Faith...
TTITLE24=Archangel Michael, Help Me! Help Me! Help Me! (9x)
TTITLE25=I AM the Guard in Archangel Michael's Name! (9x)
TTITLE26=I AM Michael, Michael, Michael! (10.07, 3x)
TTITLE27=I AM the Guard! (1.31)
EXTD=
EXTT0=
EXTT1=
EXTT2=
EXTT3=
EXTT4=
EXTT5=
EXTT6=
EXTT7=
EXTT8=
EXTT9=
EXTT10=
EXTT11=
EXTT12=
EXTT13=
EXTT14=
EXTT15=
EXTT16=
EXTT17=
EXTT18=
EXTT19=
EXTT20=
EXTT21=
EXTT22=
EXTT23=
EXTT24=
EXTT25=
EXTT26=
EXTT27=
PLAYORDER=
